<svg width="21" height="18" viewBox="0 0 21 18" fill="none" xmlns="http://www.w3.org/2000/svg">
<path d="M19.1118 17.655H2.38985C2.11071 17.6554 1.83646 17.5818 1.59508 17.4416C1.3537 17.3014 1.15382 17.0997 1.01585 16.857C0.874509 16.6159 0.800003 16.3415 0.800003 16.062C0.800003 15.7826 0.874509 15.5081 1.01585 15.267L4.95785 8.43903C4.99763 8.36981 5.06328 8.31923 5.14036 8.29841C5.21744 8.2776 5.29963 8.28825 5.36885 8.32803C5.43807 8.36782 5.48865 8.43347 5.50947 8.51054C5.53028 8.58762 5.51963 8.66981 5.47985 8.73903L1.53785 15.597C1.45233 15.7475 1.40751 15.9177 1.40779 16.0907C1.40807 16.2638 1.45345 16.4338 1.53945 16.584C1.62545 16.7342 1.7491 16.8594 1.89823 16.9473C2.04735 17.0351 2.21679 17.0826 2.38985 17.085H19.1118C19.2943 17.088 19.4739 17.0402 19.6307 16.9469C19.7875 16.8537 19.9153 16.7187 19.9998 16.557C20.0802 16.4098 20.1223 16.2448 20.1223 16.077C20.1223 15.9093 20.0802 15.7443 19.9998 15.597L11.5998 1.09503C11.5148 0.945232 11.3919 0.820392 11.2434 0.732998C11.0949 0.645605 10.9261 0.59872 10.7538 0.597034C10.5793 0.595349 10.4075 0.640703 10.2565 0.728332C10.1056 0.81596 9.98097 0.94263 9.89585 1.09503L6.69785 6.59703C6.65877 6.66617 6.59389 6.71698 6.51741 6.73835C6.44093 6.75972 6.3591 6.7499 6.28985 6.71103C6.23051 6.66767 6.18877 6.6044 6.17224 6.53279C6.15572 6.46118 6.16552 6.38601 6.19985 6.32103L9.39185 0.795034C9.5314 0.553314 9.73212 0.352587 9.97383 0.213029C10.2155 0.0734715 10.4897 0 10.7688 0C11.048 0 11.3222 0.0734715 11.5639 0.213029C11.8056 0.352587 12.0063 0.553314 12.1458 0.795034L20.4858 15.267C20.6271 15.5092 20.702 15.7843 20.7031 16.0647C20.7043 16.345 20.6315 16.6207 20.4922 16.864C20.3529 17.1073 20.152 17.3096 19.9097 17.4506C19.6674 17.5916 19.3922 17.6662 19.1118 17.667V17.655Z" fill="#333333"/>
<path d="M10.7538 15.6451C10.4866 15.6462 10.225 15.5681 10.0022 15.4205C9.7794 15.2728 9.60544 15.0624 9.50234 14.8158C9.39924 14.5693 9.37164 14.2976 9.42306 14.0354C9.47447 13.7731 9.60257 13.532 9.79113 13.3426C9.97968 13.1532 10.2202 13.024 10.4823 12.9715C10.7443 12.9189 11.016 12.9453 11.2631 13.0473C11.5101 13.1493 11.7213 13.3223 11.8699 13.5444C12.0185 13.7666 12.0978 14.0278 12.0978 14.2951C12.0978 14.6521 11.9564 14.9945 11.7046 15.2475C11.4527 15.5005 11.1108 15.6435 10.7538 15.6451ZM10.7538 13.5451C10.6053 13.5439 10.4597 13.5868 10.3355 13.6685C10.2114 13.7502 10.1144 13.8669 10.0567 14.0039C9.99898 14.1408 9.98327 14.2918 10.0115 14.4377C10.0398 14.5835 10.1107 14.7177 10.2154 14.8232C10.32 14.9287 10.4537 15.0007 10.5993 15.0302C10.745 15.0596 10.8961 15.0451 11.0335 14.9885C11.1708 14.9319 11.2883 14.8358 11.371 14.7124C11.4537 14.5889 11.4978 14.4436 11.4978 14.2951C11.4979 14.0972 11.4197 13.9073 11.2803 13.7668C11.1409 13.6264 10.9517 13.5466 10.7538 13.5451Z" fill="#333333"/>
<path d="M10.7839 12.501C10.7111 12.5017 10.6405 12.476 10.5853 12.4285C10.5301 12.381 10.494 12.3151 10.4839 12.243L9.49385 4.84502C9.4907 4.67955 9.52017 4.51509 9.58058 4.36101C9.64099 4.20694 9.73115 4.06627 9.84593 3.94704C9.9607 3.82781 10.0978 3.73235 10.2495 3.66612C10.4012 3.59988 10.5644 3.56417 10.7299 3.56102C11.064 3.55465 11.387 3.6813 11.6278 3.91309C11.8686 4.14489 12.0075 4.46285 12.0139 4.79702L11.0779 12.237C11.0691 12.3092 11.0345 12.3757 10.9805 12.4243C10.9264 12.4728 10.8565 12.5001 10.7839 12.501ZM10.7539 4.14302C10.5793 4.14299 10.4117 4.21151 10.2871 4.33383C10.1625 4.45614 10.091 4.62247 10.0879 4.79702L10.7719 9.86702L11.4139 4.79702C11.4123 4.62302 11.342 4.45668 11.2184 4.3342C11.0948 4.21172 10.9279 4.14301 10.7539 4.14302Z" fill="#333333"/>
</svg>
