<svg width="21" height="21" viewBox="0 0 21 21" fill="none" xmlns="http://www.w3.org/2000/svg">
<path d="M3.96703 8.40239C3.90694 8.40127 3.84851 8.38249 3.79903 8.34839C3.76631 8.32667 3.73827 8.29863 3.71656 8.2659C3.69486 8.23318 3.67993 8.19643 3.67266 8.15785C3.66539 8.11926 3.66593 8.0796 3.67423 8.04122C3.68254 8.00284 3.69845 7.96652 3.72103 7.93439C4.85117 6.2883 6.27494 4.86453 7.92103 3.73438C7.98733 3.68662 8.06973 3.66678 8.15051 3.67912C8.23129 3.69146 8.30401 3.735 8.35303 3.80038C8.37733 3.82973 8.3953 3.86378 8.4058 3.90041C8.4163 3.93704 8.4191 3.97544 8.41403 4.01321C8.40896 4.05097 8.39612 4.08727 8.37633 4.11983C8.35653 4.15239 8.33022 4.1805 8.29903 4.20238H8.26303C6.67677 5.29868 5.30592 6.67767 4.21903 8.27039C4.19049 8.31079 4.15276 8.34383 4.10895 8.36678C4.06513 8.38973 4.01649 8.40193 3.96703 8.40239Z" fill="#333333"/>
<path d="M12.967 17.4024C12.9069 17.4013 12.8485 17.3825 12.799 17.3484C12.7663 17.3267 12.7383 17.2986 12.7166 17.2659C12.6949 17.2332 12.6799 17.1964 12.6727 17.1578C12.6654 17.1192 12.6659 17.0796 12.6742 17.0412C12.6825 17.0028 12.6985 16.9665 12.721 16.9344C13.8527 15.2896 15.2762 13.8661 16.921 12.7344L17.125 12.9564L17.299 13.2024L17.257 13.2324C15.6765 14.3219 14.3098 15.6926 13.225 17.2764C13.196 17.3173 13.1572 17.3502 13.1121 17.3722C13.067 17.3943 13.0171 17.4046 12.967 17.4024Z" fill="#333333"/>
<path d="M12.967 17.4023C12.8879 17.4011 12.8124 17.3688 12.757 17.3123L1.95702 6.51227C1.9073 6.46369 1.87641 6.39907 1.86982 6.32986C1.86323 6.26066 1.88137 6.19137 1.92102 6.13427C3.05117 4.48819 4.47494 3.06442 6.12102 1.93427C6.18148 1.88853 6.25521 1.86377 6.33103 1.86377C6.40684 1.86377 6.48057 1.88853 6.54102 1.93427L17.341 12.7343C17.3691 12.7622 17.3915 12.7953 17.4067 12.8319C17.4219 12.8685 17.4298 12.9077 17.4298 12.9473C17.4298 12.9869 17.4219 13.0261 17.4067 13.0626C17.3915 13.0992 17.3691 13.1324 17.341 13.1603C17.2849 13.2152 17.2096 13.246 17.131 13.246C17.0525 13.246 16.9771 13.2152 16.921 13.1603L6.28902 2.54027C4.84542 3.56484 3.58391 4.82432 2.55702 6.26627L13.183 16.8923C13.238 16.9484 13.2688 17.0237 13.2688 17.1023C13.2688 17.1808 13.238 17.2562 13.183 17.3123C13.1258 17.3697 13.0481 17.4021 12.967 17.4023Z" fill="#333333"/>
<path d="M19.663 20.6663C17.863 20.6663 14.161 18.2663 12.841 17.3723C12.8082 17.3601 12.7792 17.3394 12.757 17.3123L1.95702 6.51227C1.9073 6.46369 1.87641 6.39907 1.86982 6.32987C1.86323 6.26066 1.88137 6.19137 1.92102 6.13427C3.05117 4.48819 4.47494 3.06442 6.12102 1.93427C6.18148 1.88853 6.25521 1.86377 6.33102 1.86377C6.40684 1.86377 6.48057 1.88853 6.54102 1.93427L17.341 12.7343C18.397 14.2763 21.631 19.2443 20.449 20.4203C20.3423 20.5137 20.2173 20.5838 20.082 20.6261C19.9466 20.6685 19.8039 20.6822 19.663 20.6663ZM13.147 16.8563C16.009 18.8003 19.435 20.5523 19.999 20.0003C20.563 19.4363 18.799 15.9923 16.855 13.1243L6.28902 2.54027C4.84542 3.56484 3.58391 4.82432 2.55702 6.26627L13.147 16.8563Z" fill="#333333"/>
<path d="M17.407 20.0003H17.371C17.3317 19.9959 17.2937 19.9836 17.2593 19.9642C17.2248 19.9448 17.1946 19.9186 17.1706 19.8872C17.1465 19.8558 17.129 19.8199 17.1191 19.7816C17.1092 19.7433 17.1071 19.7034 17.113 19.6643V19.4843C17.1976 18.8641 17.4942 18.2922 17.9524 17.8656C18.4106 17.4391 19.0023 17.1843 19.627 17.1443C19.7062 17.141 19.7837 17.1685 19.843 17.2211C19.9023 17.2737 19.9389 17.3473 19.945 17.4263C19.9475 17.4657 19.9421 17.5052 19.9292 17.5426C19.9164 17.5799 19.8963 17.6143 19.8701 17.6439C19.8439 17.6734 19.8121 17.6975 19.7766 17.7147C19.741 17.732 19.7024 17.742 19.663 17.7443C19.1801 17.7749 18.7224 17.9703 18.3663 18.298C18.0103 18.6256 17.7775 19.0656 17.707 19.5443V19.7243C17.6997 19.7991 17.665 19.8686 17.6097 19.9195C17.5543 19.9704 17.4822 19.9992 17.407 20.0003Z" fill="#333333"/>
<path d="M13.027 15.0743C12.9492 15.0724 12.8747 15.0426 12.817 14.9903L5.83302 8.00031C5.77653 7.94382 5.7448 7.8672 5.7448 7.78731C5.7448 7.70742 5.77653 7.6308 5.83302 7.57431C5.88952 7.51782 5.96613 7.48608 6.04602 7.48608C6.12591 7.48608 6.20253 7.51782 6.25902 7.57431L13.243 14.5643C13.2984 14.6214 13.3293 14.6978 13.3293 14.7773C13.3293 14.8568 13.2984 14.9332 13.243 14.9903C13.1838 15.044 13.1069 15.0739 13.027 15.0743Z" fill="#333333"/>
<path d="M14.827 13.2743C14.7492 13.2724 14.6747 13.2426 14.617 13.1903L7.63303 6.20026C7.57654 6.14377 7.5448 6.06715 7.5448 5.98726C7.5448 5.90737 7.57654 5.83075 7.63303 5.77426C7.68952 5.71777 7.76614 5.68604 7.84603 5.68604C7.92592 5.68604 8.00254 5.71777 8.05903 5.77426L15.043 12.7643C15.0984 12.8214 15.1293 12.8977 15.1293 12.9773C15.1293 13.0568 15.0984 13.1332 15.043 13.1903C14.9838 13.2439 14.9069 13.2739 14.827 13.2743Z" fill="#333333"/>
<path d="M13.867 6.31431C13.8251 6.31116 13.7843 6.29941 13.7472 6.2798C13.71 6.26018 13.6773 6.23313 13.651 6.20031L12.451 5.00031C12.423 4.97234 12.4009 4.93913 12.3857 4.90259C12.3706 4.86604 12.3628 4.82687 12.3628 4.78731C12.3628 4.74775 12.3706 4.70858 12.3857 4.67204C12.4009 4.63549 12.423 4.60228 12.451 4.57431C12.479 4.54634 12.5122 4.52415 12.5487 4.50901C12.5853 4.49388 12.6245 4.48608 12.664 4.48608C12.7036 4.48608 12.7427 4.49388 12.7793 4.50901C12.8158 4.52415 12.849 4.54634 12.877 4.57431L14.077 5.77431C14.1051 5.8022 14.1275 5.83538 14.1427 5.87194C14.1579 5.9085 14.1658 5.94771 14.1658 5.98731C14.1658 6.02691 14.1579 6.06613 14.1427 6.10268C14.1275 6.13924 14.1051 6.17242 14.077 6.20031C14.0519 6.23295 14.0203 6.25997 13.9841 6.27961C13.9479 6.29925 13.9081 6.31107 13.867 6.31431Z" fill="#333333"/>
<path d="M16.429 5.27626C16.3479 5.27606 16.2703 5.24369 16.213 5.18626L14.251 3.20026C14.2231 3.17229 14.2009 3.13908 14.1857 3.10254C14.1706 3.06599 14.1628 3.02682 14.1628 2.98726C14.1628 2.9477 14.1706 2.90853 14.1857 2.87199C14.2009 2.83544 14.2231 2.80223 14.251 2.77426C14.279 2.74629 14.3122 2.7241 14.3487 2.70896C14.3853 2.69383 14.4245 2.68604 14.464 2.68604C14.5036 2.68604 14.5428 2.69383 14.5793 2.70896C14.6158 2.7241 14.6491 2.74629 14.677 2.77426L16.639 4.76026C16.6671 4.78815 16.6895 4.82133 16.7047 4.85789C16.7199 4.89445 16.7278 4.93366 16.7278 4.97326C16.7278 5.01287 16.7199 5.05208 16.7047 5.08864C16.6895 5.12519 16.6671 5.15837 16.639 5.18626C16.6118 5.21452 16.5792 5.23704 16.5431 5.2525C16.5071 5.26795 16.4683 5.27603 16.429 5.27626Z" fill="#333333"/>
<path d="M6.06703 14.1144C6.02512 14.1112 5.98432 14.0995 5.94716 14.0798C5.91 14.0602 5.87727 14.0332 5.85103 14.0004L4.65103 12.8004C4.62305 12.7724 4.60087 12.7392 4.58573 12.7026C4.57059 12.6661 4.5628 12.6269 4.5628 12.5874C4.5628 12.5478 4.57059 12.5086 4.58573 12.4721C4.60087 12.4355 4.62305 12.4023 4.65103 12.3744C4.679 12.3464 4.7122 12.3242 4.74875 12.3091C4.7853 12.2939 4.82447 12.2861 4.86403 12.2861C4.90358 12.2861 4.94275 12.2939 4.9793 12.3091C5.01585 12.3242 5.04905 12.3464 5.07703 12.3744L6.27703 13.5744C6.30514 13.6022 6.32746 13.6354 6.34269 13.672C6.35792 13.7085 6.36576 13.7478 6.36576 13.7874C6.36576 13.827 6.35792 13.8662 6.34269 13.9027C6.32746 13.9393 6.30514 13.9725 6.27703 14.0004C6.25195 14.033 6.2203 14.06 6.18413 14.0797C6.14795 14.0993 6.10806 14.1111 6.06703 14.1144Z" fill="#333333"/>
<path d="M5.02902 16.6764C4.94794 16.6762 4.87025 16.6438 4.81302 16.5864L2.85102 14.6004C2.82305 14.5724 2.80086 14.5392 2.78572 14.5027C2.77059 14.4661 2.76279 14.427 2.76279 14.3874C2.76279 14.3479 2.77059 14.3087 2.78572 14.2721C2.80086 14.2356 2.82305 14.2024 2.85102 14.1744C2.87899 14.1464 2.9122 14.1242 2.94875 14.1091C2.98529 14.094 3.02446 14.0862 3.06402 14.0862C3.10358 14.0862 3.14275 14.094 3.1793 14.1091C3.21584 14.1242 3.24905 14.1464 3.27702 14.1744L5.23902 16.1604C5.26714 16.1883 5.28946 16.2215 5.30469 16.258C5.31992 16.2946 5.32776 16.3338 5.32776 16.3734C5.32776 16.413 5.31992 16.4522 5.30469 16.4888C5.28946 16.5253 5.26714 16.5585 5.23902 16.5864C5.2118 16.6147 5.17919 16.6372 5.14312 16.6526C5.10706 16.6681 5.06826 16.6762 5.02902 16.6764Z" fill="#333333"/>
<path d="M2.27502 6.44635C2.19589 6.44522 2.12041 6.41287 2.06502 6.35635L1.46503 5.75635C1.25594 5.55069 1.08956 5.30574 0.975441 5.03558C0.861321 4.76541 0.801712 4.47536 0.800039 4.18209C0.798367 3.88882 0.854663 3.59811 0.965694 3.32666C1.07673 3.05521 1.2403 2.80838 1.44703 2.60035L2.59902 1.43035C3.02123 1.02586 3.58333 0.800049 4.16802 0.800049C4.75272 0.800049 5.31482 1.02586 5.73702 1.43035L6.33702 2.03035C6.39199 2.08643 6.42278 2.16182 6.42278 2.24035C6.42278 2.31887 6.39199 2.39427 6.33702 2.45035C6.30913 2.47847 6.27596 2.50079 6.2394 2.51602C6.20284 2.53125 6.16363 2.53909 6.12402 2.53909C6.08442 2.53909 6.04521 2.53125 6.00865 2.51602C5.97209 2.50079 5.93891 2.47847 5.91102 2.45035L5.31102 1.85035C5.00201 1.55615 4.59169 1.39206 4.16502 1.39206C3.73836 1.39206 3.32804 1.55615 3.01902 1.85035L1.84902 3.05035C1.54638 3.35497 1.37652 3.76694 1.37652 4.19635C1.37652 4.62575 1.54638 5.03772 1.84902 5.34235L2.44902 5.94235C2.50399 5.99843 2.53478 6.07382 2.53478 6.15235C2.53478 6.23087 2.50399 6.30627 2.44902 6.36235C2.40162 6.40841 2.34057 6.43787 2.27502 6.44635Z" fill="#333333"/>
<path d="M15.961 10.1123C15.8799 10.1121 15.8023 10.0797 15.745 10.0223C15.6901 9.96619 15.6593 9.8908 15.6593 9.81227C15.6593 9.73375 15.6901 9.65835 15.745 9.60227L19.825 5.52227L16.093 1.79627L11.071 6.80027C11.0431 6.82839 11.01 6.85071 10.9734 6.86594C10.9368 6.88117 10.8976 6.88901 10.858 6.88901C10.8184 6.88901 10.7792 6.88117 10.7426 6.86594C10.7061 6.85071 10.6729 6.82839 10.645 6.80027C10.5901 6.74419 10.5593 6.6688 10.5593 6.59027C10.5593 6.51175 10.5901 6.43635 10.645 6.38027L15.883 1.16027C15.9109 1.13215 15.9441 1.10984 15.9806 1.09461C16.0172 1.07937 16.0564 1.07153 16.096 1.07153C16.1356 1.07153 16.1748 1.07937 16.2114 1.09461C16.248 1.10984 16.2811 1.13215 16.309 1.16027L20.461 5.31227C20.5153 5.36863 20.5455 5.44399 20.545 5.52227C20.5458 5.60239 20.5157 5.67973 20.461 5.73827L16.171 10.0223C16.1438 10.0505 16.1112 10.073 16.0751 10.0885C16.0391 10.104 16.0003 10.112 15.961 10.1123Z" fill="#333333"/>
<path d="M5.54503 20.5283C5.46395 20.5281 5.38626 20.4958 5.32903 20.4383L1.17703 16.2863C1.12206 16.2303 1.09127 16.1549 1.09127 16.0763C1.09127 15.9978 1.12206 15.9224 1.17703 15.8663L5.52103 11.5223C5.54892 11.4942 5.5821 11.4719 5.61865 11.4567C5.65521 11.4414 5.69442 11.4336 5.73403 11.4336C5.77363 11.4336 5.81284 11.4414 5.8494 11.4567C5.88596 11.4719 5.91914 11.4942 5.94703 11.5223C6.002 11.5784 6.03278 11.6538 6.03278 11.7323C6.03278 11.8109 6.002 11.8863 5.94703 11.9423L1.81303 16.0763L5.54503 19.8023L10.597 14.7503C10.6531 14.6954 10.7285 14.6646 10.807 14.6646C10.8856 14.6646 10.9609 14.6954 11.017 14.7503C11.0479 14.7797 11.0721 14.8154 11.0881 14.8549C11.104 14.8944 11.1114 14.9368 11.1097 14.9794C11.108 15.022 11.0973 15.0637 11.0782 15.1018C11.0591 15.1399 11.0321 15.1735 10.999 15.2003L5.75503 20.4383C5.69964 20.4949 5.62416 20.5272 5.54503 20.5283Z" fill="#333333"/>
</svg>
