<svg width="21" height="21" viewBox="0 0 21 21" fill="none" xmlns="http://www.w3.org/2000/svg">
<path d="M12.748 20.0198C12.7086 20.0168 12.6701 20.006 12.6349 19.9881C12.5996 19.9701 12.5682 19.9454 12.5426 19.9153C12.5169 19.8851 12.4975 19.8503 12.4854 19.8126C12.4733 19.7749 12.4687 19.7353 12.472 19.6958L12.598 18.0998C12.6029 18.0391 12.6262 17.9813 12.6648 17.9342C12.7034 17.887 12.7554 17.8527 12.814 17.8358C13.084 17.7518 13.576 17.1218 14.398 14.5718C14.5083 14.3227 14.5247 14.0421 14.4442 13.7818C14.3637 13.5215 14.1917 13.2992 13.96 13.1558C13.0075 12.7287 12.0172 12.3912 11.002 12.1478C10.9386 12.1308 10.8825 12.0933 10.8424 12.0413C10.8023 11.9893 10.7804 11.9255 10.78 11.8598C10.78 11.8238 10.702 7.97784 10.702 7.11384C10.702 7.04184 10.702 6.99984 10.66 6.98784C10.5564 6.96464 10.449 6.96444 10.3454 6.98725C10.2417 7.01005 10.1443 7.05531 10.06 7.11984C9.91819 7.19337 9.79683 7.30091 9.70678 7.43285C9.61673 7.56478 9.5608 7.71699 9.544 7.87584C9.544 8.75784 9.544 10.1078 9.544 11.0018V11.7038C9.57606 12.0956 9.48673 12.4877 9.28813 12.827C9.08954 13.1662 8.79132 13.436 8.434 13.5998C7.636 13.8758 7.294 13.1318 7.066 12.6398C7.012 12.5138 6.952 12.3878 6.886 12.2678C6.82 12.1478 6.58 12.1778 6.442 12.2678C6.304 12.3578 6.052 12.5318 6.118 12.7298C6.352 13.4078 7.474 16.2398 7.576 16.4438C7.678 16.6478 8.716 17.5958 9.43 18.2918C9.48324 18.3446 9.51526 18.415 9.52 18.4898L9.598 19.6898C9.60127 19.7289 9.59668 19.7683 9.5845 19.8056C9.57231 19.8429 9.55278 19.8774 9.52706 19.907C9.50134 19.9367 9.46994 19.9609 9.43472 19.9782C9.39951 19.9955 9.36118 20.0056 9.322 20.0078C9.24178 20.0128 9.16283 19.986 9.10221 19.9332C9.04158 19.8805 9.00415 19.806 8.998 19.7258L8.926 18.6158C7.726 17.4758 7.126 16.8158 7.054 16.7138C6.982 16.6118 5.758 13.5038 5.554 12.9038C5.49205 12.659 5.52426 12.3998 5.64426 12.1776C5.76426 11.9554 5.9633 11.7863 6.202 11.7038C6.4014 11.5913 6.636 11.5585 6.85862 11.6119C7.08124 11.6654 7.27538 11.8011 7.402 11.9918C7.47517 12.1242 7.54126 12.2604 7.6 12.3998C7.882 12.9998 7.99 13.1258 8.2 13.0418C8.866 12.8138 8.896 11.8838 8.896 11.6978V10.9958C8.896 10.1078 8.896 8.76384 8.896 7.88784C8.90981 7.62317 8.99159 7.36652 9.13348 7.14266C9.27536 6.9188 9.47254 6.73529 9.706 6.60984C9.8754 6.48182 10.0757 6.40103 10.2866 6.37574C10.4974 6.35044 10.7111 6.38153 10.906 6.46584C11.0176 6.53137 11.1088 6.62672 11.1692 6.74119C11.2296 6.85566 11.2569 6.98471 11.248 7.11384C11.248 7.85184 11.302 10.7858 11.32 11.6258C12.04 11.8298 13.87 12.3578 14.278 12.6878C14.6042 12.9029 14.8466 13.2235 14.9646 13.596C15.0826 13.9685 15.0689 14.3702 14.926 14.7338C14.398 16.3598 13.822 17.8838 13.126 18.3338L13.012 19.7618C13.0031 19.8281 12.9722 19.8895 12.9244 19.9362C12.8766 19.983 12.8145 20.0124 12.748 20.0198Z" fill="#333333"/>
<path d="M11.8 12.364C11.7204 12.3767 11.6391 12.3573 11.5738 12.31C11.5085 12.2628 11.4647 12.1915 11.452 12.112C11.4393 12.0324 11.4587 11.951 11.5059 11.8858C11.5532 11.8205 11.6244 11.7767 11.704 11.764C12.6592 11.4517 13.4857 10.835 14.057 10.0083C14.6283 9.18159 14.9129 8.19041 14.8672 7.18653C14.8215 6.18265 14.4481 5.22141 13.8041 4.44999C13.16 3.67857 12.2809 3.13949 11.3013 2.91529C10.3218 2.6911 9.29568 2.79414 8.38023 3.20864C7.46478 3.62315 6.71042 4.32627 6.23264 5.21035C5.75487 6.09442 5.58002 7.11073 5.73486 8.10364C5.88971 9.09656 6.36571 10.0114 7.09 10.708C7.11812 10.7359 7.14043 10.769 7.15567 10.8056C7.1709 10.8422 7.17874 10.8814 7.17874 10.921C7.17874 10.9606 7.1709 10.9998 7.15567 11.0363C7.14043 11.0729 7.11812 11.1061 7.09 11.134C7.03291 11.1893 6.95651 11.2203 6.877 11.2203C6.79748 11.2203 6.72109 11.1893 6.664 11.134C5.846 10.3455 5.309 9.3106 5.13521 8.18781C4.96142 7.06503 5.16043 5.91623 5.70177 4.91733C6.2431 3.91843 7.09692 3.12449 8.13248 2.65708C9.16803 2.18968 10.3282 2.07458 11.4355 2.3294C12.5427 2.58423 13.5358 3.19493 14.2629 4.068C14.9899 4.94106 15.4108 6.02837 15.461 7.16341C15.5112 8.29845 15.188 9.41867 14.5409 10.3525C13.8938 11.2864 12.9584 11.9824 11.878 12.334C11.854 12.3485 11.8276 12.3586 11.8 12.364Z" fill="#333333"/>
<path d="M8.002 9.80187C7.96019 9.80334 7.91858 9.79548 7.88018 9.77888C7.84179 9.76227 7.80756 9.73734 7.78 9.70587C7.35023 9.23388 7.06407 8.64904 6.95515 8.02006C6.84623 7.39109 6.91906 6.74408 7.16508 6.15506C7.41111 5.56604 7.82012 5.05945 8.34407 4.69482C8.86801 4.33018 9.48513 4.12263 10.1229 4.09655C10.7607 4.07047 11.3928 4.22695 11.9447 4.54759C12.4967 4.86824 12.9457 5.33974 13.239 5.90671C13.5323 6.47368 13.6577 7.11258 13.6005 7.74835C13.5433 8.38412 13.3058 8.99037 12.916 9.49587C12.8657 9.55332 12.7954 9.58942 12.7194 9.59682C12.6434 9.60422 12.5674 9.58235 12.507 9.53568C12.4465 9.48901 12.4061 9.42105 12.3941 9.34565C12.382 9.27024 12.3991 9.19307 12.442 9.12987C12.7624 8.71583 12.9579 8.21888 13.0054 7.69752C13.0529 7.17615 12.9505 6.65205 12.7102 6.18691C12.47 5.72177 12.1018 5.33495 11.6491 5.07196C11.1964 4.80898 10.6781 4.68078 10.155 4.70245C9.63189 4.72412 9.12588 4.89476 8.6965 5.19429C8.26712 5.49382 7.93224 5.90977 7.73127 6.39318C7.53029 6.8766 7.47159 7.40737 7.56207 7.92302C7.65255 8.43868 7.88845 8.91775 8.242 9.30387C8.26994 9.33124 8.29213 9.36392 8.30728 9.39998C8.32244 9.43604 8.33024 9.47476 8.33024 9.51387C8.33024 9.55298 8.32244 9.5917 8.30728 9.62776C8.29213 9.66382 8.26994 9.6965 8.242 9.72387C8.21108 9.75502 8.17317 9.77834 8.13144 9.79191C8.0897 9.80547 8.04532 9.80889 8.002 9.80187Z" fill="#333333"/>
<path d="M18.628 14.0619H16.528C16.4484 14.0619 16.3721 14.0303 16.3159 13.974C16.2596 13.9178 16.228 13.8415 16.228 13.7619C16.228 13.6823 16.2596 13.606 16.3159 13.5498C16.3721 13.4935 16.4484 13.4619 16.528 13.4619H18.628C18.8641 13.4619 19.0906 13.3685 19.258 13.2022C19.4255 13.0358 19.5204 12.81 19.522 12.5739V1.8939C19.522 1.6568 19.4278 1.42941 19.2602 1.26175C19.0925 1.09409 18.8651 0.999902 18.628 0.999902H1.894C1.6569 0.999902 1.42951 1.09409 1.26185 1.26175C1.09419 1.42941 1 1.6568 1 1.8939V12.5739C1.00159 12.81 1.09647 13.0358 1.26396 13.2022C1.43145 13.3685 1.65793 13.4619 1.894 13.4619H4.39C4.46957 13.4619 4.54587 13.4935 4.60213 13.5498C4.65839 13.606 4.69 13.6823 4.69 13.7619C4.69 13.8415 4.65839 13.9178 4.60213 13.974C4.54587 14.0303 4.46957 14.0619 4.39 14.0619H1.894C1.49881 14.0619 1.11971 13.9053 0.8397 13.6264C0.559692 13.3476 0.401589 12.9691 0.400002 12.5739L0.400002 1.8939C0.401581 1.49816 0.559492 1.11907 0.839329 0.83923C1.11917 0.559393 1.49825 0.401482 1.894 0.399902L18.628 0.399902C19.0237 0.401482 19.4028 0.559393 19.6827 0.83923C19.9625 1.11907 20.1204 1.49816 20.122 1.8939V12.5739C20.1204 12.9691 19.9623 13.3476 19.6823 13.6264C19.4023 13.9053 19.0232 14.0619 18.628 14.0619Z" fill="#333333"/>
</svg>
