<svg width="19" height="21" viewBox="0 0 19 21" fill="none" xmlns="http://www.w3.org/2000/svg">
<path d="M17.0513 12.6152C16.7827 12.6187 16.5193 12.5414 16.2953 12.3932L13.2953 10.2992C12.3466 11.1179 11.152 11.597 9.90038 11.6606C8.64882 11.7243 7.41176 11.3688 6.38489 10.6504C5.35803 9.93211 4.59997 8.89191 4.23062 7.69439C3.86128 6.49687 3.90173 5.21039 4.34559 4.03845C4.78944 2.8665 5.61136 1.87598 6.68133 1.22358C7.75131 0.57118 9.00825 0.294133 10.2533 0.436262C11.4984 0.578392 12.6606 1.13159 13.556 2.00834C14.4515 2.88509 15.029 4.03536 15.1973 5.27719C15.339 6.33798 15.1789 7.41723 14.7353 8.39119C14.7002 8.46286 14.639 8.51836 14.5642 8.54626C14.4894 8.57416 14.4068 8.57234 14.3333 8.54119C14.2973 8.52445 14.2649 8.50072 14.2382 8.47138C14.2114 8.44205 14.1907 8.40768 14.1773 8.37028C14.1639 8.33289 14.1581 8.2932 14.1601 8.25353C14.1622 8.21386 14.1721 8.17499 14.1893 8.13919C14.5113 7.43821 14.6678 6.67262 14.6469 5.90153C14.626 5.13044 14.4281 4.37447 14.0686 3.69199C13.7091 3.00951 13.1976 2.41878 12.5735 1.9654C11.9494 1.51203 11.2295 1.20813 10.4693 1.07719C9.62374 0.93115 8.75487 1.00369 7.94521 1.28791C7.13556 1.57214 6.41199 2.05861 5.84323 2.70114C5.27447 3.34366 4.8794 4.12091 4.69553 4.95908C4.51166 5.79724 4.5451 6.6685 4.79267 7.4901C5.04023 8.31171 5.49372 9.0564 6.11005 9.65344C6.72638 10.2505 7.4851 10.6801 8.31416 10.9014C9.14322 11.1227 10.0151 11.1285 10.847 10.9181C11.6789 10.7076 12.4432 10.2881 13.0673 9.69919C13.1178 9.65242 13.1825 9.62402 13.2511 9.61858C13.3197 9.61314 13.3881 9.63096 13.4453 9.66919L16.6253 11.9012C16.7844 12.011 16.9807 12.0531 17.1708 12.0182C17.361 11.9833 17.5295 11.8743 17.6393 11.7152C17.7491 11.5561 17.7912 11.3598 17.7563 11.1697C17.7214 10.9795 17.6124 10.811 17.4533 10.7012L15.2213 9.14119C15.1571 9.09427 15.1136 9.02418 15.1002 8.94578C15.0868 8.86738 15.1044 8.78682 15.1493 8.72119C15.1721 8.68874 15.201 8.66112 15.2345 8.63992C15.2679 8.61872 15.3053 8.60435 15.3443 8.59766C15.3834 8.59096 15.4234 8.59207 15.462 8.60092C15.5006 8.60976 15.5371 8.62617 15.5693 8.64919L17.8013 10.2092C17.9432 10.3084 18.0641 10.4348 18.1568 10.581C18.2495 10.7273 18.3122 10.8905 18.3413 11.0612C18.4006 11.4067 18.3231 11.7617 18.1253 12.0512C18.0041 12.2239 17.8434 12.3651 17.6566 12.4632C17.4698 12.5613 17.2623 12.6134 17.0513 12.6152Z" fill="#333333"/>
<path d="M5.92732 10.1791C5.8561 10.1798 5.78704 10.1547 5.73297 10.1083C5.6789 10.062 5.64348 9.99756 5.63331 9.92707C5.61929 9.84913 5.63665 9.76881 5.68161 9.70362C5.72657 9.63843 5.79548 9.59366 5.87331 9.57907C6.05299 9.54042 6.22949 9.48827 6.40132 9.42307C6.57532 9.36307 7.00132 8.55907 7.16332 7.47907C7.28932 6.77107 7.10932 2.72707 7.02532 1.22707C7.02371 1.18766 7.02988 1.14833 7.04349 1.11131C7.0571 1.0743 7.07788 1.04033 7.10462 1.01135C7.13137 0.982375 7.16357 0.958955 7.19938 0.942434C7.23519 0.925912 7.27391 0.916613 7.31332 0.915068C7.3526 0.911776 7.39215 0.916587 7.4295 0.929201C7.46686 0.941816 7.50123 0.961966 7.53047 0.988403C7.55972 1.01484 7.58323 1.047 7.59955 1.08289C7.61586 1.11879 7.62463 1.15765 7.62532 1.19707C7.62532 1.41907 7.91932 6.66307 7.75732 7.58107C7.71532 7.80307 7.35532 9.73507 6.59332 9.98107C6.39667 10.0517 6.19639 10.1118 5.99331 10.1611L5.92732 10.1791Z" fill="#333333"/>
<path d="M4.30131 6.63313C4.26057 6.63332 4.22025 6.62486 4.18301 6.60831C4.14578 6.59176 4.11248 6.5675 4.08531 6.53713C4.05738 6.50976 4.03518 6.47708 4.02003 6.44102C4.00488 6.40497 3.99707 6.36624 3.99707 6.32713C3.99707 6.28802 4.00488 6.2493 4.02003 6.21324C4.03518 6.17718 4.05738 6.1445 4.08531 6.11713C4.37396 5.83875 4.70639 5.6097 5.06931 5.43913C5.46143 5.24065 5.91524 5.20193 6.33531 5.33113C6.68931 5.45113 7.53531 5.64913 7.57131 5.64913C7.65088 5.66663 7.72023 5.71503 7.76411 5.78367C7.808 5.85231 7.82282 5.93557 7.80531 6.01513C7.78781 6.0947 7.73941 6.16405 7.67078 6.20793C7.60214 6.25182 7.51888 6.26664 7.43931 6.24913C7.39731 6.24913 6.52731 6.04513 6.14331 5.91313C6.00212 5.87117 5.85393 5.85804 5.70756 5.87453C5.56118 5.89102 5.41963 5.9368 5.29131 6.00913C5.00461 6.15517 4.73999 6.34101 4.50531 6.56113C4.44894 6.61019 4.37599 6.63593 4.30131 6.63313Z" fill="#333333"/>
<path d="M7.13932 9.03306C7.08211 9.03112 7.02635 9.0146 6.97732 8.98506C6.52446 8.71184 6.09139 8.40709 5.68132 8.07307C5.59714 7.96328 5.53618 7.83751 5.50214 7.70342C5.4681 7.56933 5.4617 7.42971 5.48332 7.29307C5.48844 7.25367 5.50127 7.21567 5.52108 7.18123C5.54089 7.14679 5.56728 7.11659 5.59876 7.09236C5.63024 7.06812 5.66619 7.05032 5.70454 7.03998C5.7429 7.02963 5.78292 7.02694 5.82232 7.03207C5.86171 7.03719 5.89972 7.05002 5.93415 7.06983C5.96859 7.08963 5.99879 7.11603 6.02303 7.14751C6.04726 7.17899 6.06506 7.21493 6.07541 7.25329C6.08575 7.29165 6.08844 7.33167 6.08332 7.37107C6.06731 7.47168 6.08414 7.57477 6.13132 7.66507C6.51402 7.96167 6.91479 8.2342 7.33132 8.48106C7.39806 8.5241 7.44502 8.59186 7.46189 8.66946C7.47876 8.74707 7.46417 8.8282 7.42132 8.89506C7.3927 8.94288 7.35083 8.98137 7.30077 9.00587C7.25072 9.03036 7.19463 9.03981 7.13932 9.03306Z" fill="#333333"/>
<path d="M6.34132 4.29928H6.30532C5.87932 4.29928 5.35732 4.05328 5.25532 3.69928C5.20132 3.53728 5.14132 3.33328 5.14132 3.33328L5.74132 3.16528L5.84932 3.51928C5.99639 3.6144 6.16631 3.66828 6.34132 3.67528C6.70026 3.65239 7.05714 3.60427 7.40932 3.53128C7.44871 3.5234 7.48928 3.52336 7.52869 3.53116C7.5681 3.53896 7.6056 3.55444 7.63902 3.57672C7.67245 3.59901 7.70117 3.62766 7.72352 3.66105C7.74588 3.69443 7.76144 3.73189 7.76932 3.77128C7.7772 3.81068 7.77724 3.85124 7.76944 3.89066C7.76165 3.93007 7.74616 3.96756 7.72388 4.00099C7.70159 4.03442 7.67294 4.06313 7.63956 4.08549C7.60617 4.10784 7.56872 4.1234 7.52932 4.13128C7.13781 4.21541 6.7408 4.27155 6.34132 4.29928Z" fill="#333333"/>
<path d="M9.94732 10.1551C9.74298 10.1554 9.54008 10.121 9.34732 10.0531C9.04484 9.92356 8.78366 9.71353 8.59219 9.4459C8.40072 9.17826 8.28629 8.86326 8.26132 8.53514C8.02512 7.017 8.01501 5.47225 8.23132 3.95114C8.23826 3.903 8.25657 3.8572 8.28475 3.81755C8.31292 3.7779 8.35014 3.74553 8.39332 3.72314C8.43656 3.69951 8.48504 3.68712 8.53432 3.68712C8.58359 3.68712 8.63208 3.69951 8.67532 3.72314C8.8183 3.80663 8.98636 3.83641 9.14932 3.80714C9.29081 3.77239 9.41337 3.68424 9.49132 3.56114C9.53154 3.49325 9.596 3.44312 9.67171 3.42086C9.74741 3.39859 9.82874 3.40584 9.89932 3.44114C9.96781 3.47926 10.0191 3.54221 10.0425 3.61701C10.066 3.6918 10.0598 3.77275 10.0253 3.84314C9.86731 4.10728 9.61384 4.3006 9.31732 4.38314C9.1381 4.4281 8.95054 4.4281 8.77132 4.38314C8.61778 5.72262 8.64401 7.07661 8.84932 8.40914C8.85551 8.6325 8.92394 8.8497 9.04691 9.03627C9.16988 9.22285 9.34249 9.37138 9.54532 9.46514C10.2833 9.72914 11.4233 9.12914 11.8733 8.75114C12.5453 8.15114 13.0733 6.44714 13.3133 5.02514C13.4933 3.76514 12.7133 1.97114 12.7133 1.95314C12.6888 1.8885 12.6873 1.81736 12.7092 1.75176C12.731 1.68616 12.7749 1.63012 12.8333 1.59314C12.9057 1.56068 12.9881 1.55823 13.0623 1.58635C13.1365 1.61446 13.1966 1.67084 13.2293 1.74314C13.2653 1.82714 14.0993 3.71714 13.8893 5.15114C13.7273 6.29714 13.1933 8.44514 12.2513 9.24314C11.5996 9.78396 10.7926 10.1034 9.94732 10.1551Z" fill="#333333"/>
<path d="M8.39332 3.3273C8.31738 3.32736 8.24436 3.29804 8.18956 3.24547C8.13475 3.19291 8.10242 3.12117 8.09932 3.0453C8.03466 2.25896 8.07908 1.46746 8.23132 0.693297C8.26425 0.620914 8.32357 0.563837 8.39717 0.533727C8.47078 0.503618 8.5531 0.502749 8.62732 0.531297C8.69963 0.564152 8.75633 0.623835 8.78544 0.697733C8.81455 0.77163 8.81379 0.853951 8.78332 0.927297C8.66793 1.61695 8.6357 2.31796 8.68732 3.0153C8.68974 3.0544 8.68433 3.0936 8.6714 3.13058C8.65846 3.16757 8.63826 3.20159 8.61199 3.23066C8.58572 3.25973 8.5539 3.28325 8.51841 3.29984C8.48292 3.31644 8.44447 3.32577 8.40532 3.3273H8.39332Z" fill="#333333"/>
<path d="M9.47932 2.2351C9.42522 2.2359 9.37195 2.22177 9.32537 2.19424C9.27879 2.16672 9.24071 2.12687 9.21532 2.0791C9.17852 2.0088 9.17047 1.92696 9.19285 1.85084C9.21524 1.77472 9.26632 1.71028 9.33532 1.6711C9.8763 1.38059 10.3921 1.04542 10.8773 0.669096C10.9362 0.614992 11.0142 0.586493 11.094 0.589869C11.1739 0.593244 11.2492 0.628218 11.3033 0.687096C11.3574 0.745974 11.3859 0.823934 11.3825 0.903824C11.3792 0.983715 11.3442 1.05899 11.2853 1.1131C10.7641 1.52114 10.2079 1.88253 9.62332 2.1931C9.57935 2.21838 9.52998 2.23278 9.47932 2.2351Z" fill="#333333"/>
<path d="M10.8773 2.79325H10.8293C10.7905 2.78744 10.7532 2.77391 10.7197 2.75346C10.6862 2.733 10.6571 2.70604 10.6341 2.67416C10.6112 2.64228 10.5949 2.60614 10.5862 2.56785C10.5774 2.52956 10.5765 2.48992 10.5833 2.45125C10.5777 2.32535 10.5576 2.20052 10.5233 2.07925C10.5002 1.99238 10.4821 1.90423 10.4693 1.81525C10.4407 1.47071 10.5227 1.12603 10.7033 0.831251C10.7255 0.799003 10.7539 0.771508 10.7868 0.750379C10.8198 0.729249 10.8566 0.714911 10.8952 0.708205C10.9337 0.701499 10.9733 0.70256 11.0114 0.711325C11.0495 0.720091 11.0856 0.736384 11.1173 0.759251C11.15 0.780962 11.1781 0.809009 11.1998 0.841734C11.2215 0.87446 11.2364 0.911202 11.2437 0.949791C11.251 0.98838 11.2504 1.02804 11.2421 1.06641C11.2338 1.10479 11.2179 1.14112 11.1953 1.17325C11.092 1.35532 11.048 1.56502 11.0693 1.77325C11.0748 1.83634 11.0869 1.89868 11.1053 1.95925C11.1653 2.15323 11.1877 2.35687 11.1713 2.55925C11.1563 2.6259 11.119 2.68543 11.0655 2.72798C11.012 2.77053 10.9456 2.79356 10.8773 2.79325Z" fill="#333333"/>
<path d="M10.9493 4.12522C10.9099 4.12995 10.87 4.12687 10.8318 4.11616C10.7936 4.10546 10.7578 4.08733 10.7266 4.06281C10.6954 4.0383 10.6694 4.00788 10.6499 3.97329C10.6305 3.9387 10.618 3.90062 10.6133 3.86122C10.6086 3.82183 10.6117 3.78189 10.6224 3.74368C10.6331 3.70547 10.6512 3.66975 10.6757 3.63855C10.7002 3.60735 10.7307 3.58128 10.7652 3.56184C10.7998 3.54239 10.8379 3.52995 10.8773 3.52522C11.0375 3.48391 11.1858 3.4053 11.3098 3.29581C11.4339 3.18633 11.5304 3.04907 11.5913 2.89523C11.6105 2.80612 11.6246 2.71596 11.6333 2.62523C11.6325 2.46267 11.6638 2.30155 11.7256 2.15119C11.7874 2.00083 11.8784 1.86421 11.9933 1.74923C12.3173 1.50323 12.7913 1.67723 13.0493 1.74923H13.1093C13.1889 1.74923 13.2652 1.78083 13.3214 1.83709C13.3777 1.89335 13.4093 1.96966 13.4093 2.04923C13.4093 2.12879 13.3777 2.2051 13.3214 2.26136C13.2652 2.31762 13.1889 2.34923 13.1093 2.34923C13.02 2.35534 12.9307 2.33665 12.8513 2.29523C12.5033 2.16923 12.3953 2.17523 12.3593 2.19323C12.2911 2.3424 12.2524 2.50335 12.2453 2.66723C12.2334 2.79478 12.2114 2.92119 12.1793 3.04523C12.0883 3.29741 11.9367 3.52338 11.7379 3.70332C11.5392 3.88325 11.2993 4.01164 11.0393 4.07722L10.9493 4.12522Z" fill="#333333"/>
<path d="M13.5413 5.73313C13.5024 5.73475 13.4635 5.7281 13.4273 5.71362C13.3911 5.69915 13.3584 5.67716 13.3313 5.64913C13.3313 5.64913 13.1213 5.44513 12.5933 4.94113C12.549 4.89193 12.4942 4.85342 12.4328 4.82848C12.3715 4.80354 12.3054 4.79282 12.2393 4.79713C11.941 4.86814 11.6813 5.05062 11.5133 5.30713C11.4638 5.36894 11.3919 5.40868 11.3132 5.41767C11.2345 5.42666 11.1555 5.40418 11.0933 5.35513C11.0306 5.3065 10.9897 5.235 10.9796 5.15628C10.9694 5.07756 10.9909 4.99804 11.0393 4.93513C11.3126 4.54577 11.729 4.28044 12.1973 4.19713C12.3449 4.18731 12.493 4.20898 12.6316 4.2607C12.7702 4.31242 12.8962 4.39301 13.0013 4.49713C13.5653 5.01913 13.7693 5.22313 13.7693 5.22313C13.7974 5.25101 13.8197 5.28419 13.835 5.32075C13.8502 5.35731 13.8581 5.39652 13.8581 5.43613C13.8581 5.47573 13.8502 5.51494 13.835 5.5515C13.8197 5.58806 13.7974 5.62124 13.7693 5.64913C13.7389 5.67767 13.703 5.6998 13.6638 5.71423C13.6247 5.72866 13.583 5.73509 13.5413 5.73313Z" fill="#333333"/>
<path d="M11.7653 7.4371C11.7104 7.43827 11.6562 7.4237 11.6093 7.3951C11.3919 7.2231 11.2 7.02108 11.0393 6.7951C10.8433 6.54704 10.6329 6.31064 10.4093 6.0871C10.2729 5.93635 10.0984 5.82507 9.90416 5.7649C9.70993 5.70473 9.5031 5.69789 9.30532 5.7451C9.02906 5.80223 8.7701 5.92349 8.54932 6.0991C8.48806 6.15002 8.40907 6.17452 8.32974 6.16721C8.25042 6.15989 8.17724 6.12137 8.12632 6.0601C8.0754 5.99884 8.0509 5.91985 8.05822 5.84052C8.06553 5.7612 8.10406 5.68802 8.16532 5.6371C8.46835 5.39583 8.82395 5.22933 9.20332 5.1511C9.49342 5.08972 9.79437 5.10323 10.0778 5.19036C10.3612 5.27749 10.6178 5.43536 10.8233 5.6491C11.0644 5.88292 11.2908 6.13139 11.5013 6.3931C11.6304 6.56236 11.7707 6.72272 11.9213 6.8731C11.9753 6.90791 12.0166 6.95911 12.0393 7.01917C12.062 7.07923 12.0648 7.14498 12.0474 7.20676C12.0299 7.26854 11.9931 7.32309 11.9423 7.3624C11.8915 7.4017 11.8295 7.42368 11.7653 7.4251V7.4371Z" fill="#333333"/>
<path d="M11.3933 9.08727C11.1732 9.11814 10.949 9.09494 10.7399 9.01967C10.5308 8.9444 10.3432 8.81933 10.1933 8.65527C9.96531 8.31927 10.0013 7.84527 10.3073 7.20327C10.3411 7.13204 10.4017 7.07699 10.4758 7.05004C10.5499 7.0231 10.6316 7.02641 10.7033 7.05927C10.7393 7.07601 10.7717 7.09974 10.7985 7.12907C10.8253 7.15841 10.8459 7.19278 10.8593 7.23017C10.8727 7.26757 10.8786 7.30726 10.8765 7.34693C10.8744 7.3866 10.8645 7.42547 10.8473 7.46127C10.5713 8.06127 10.6433 8.24727 10.6853 8.31327C10.8413 8.54127 11.5373 8.48727 11.9993 8.45127H12.2933C12.3327 8.44891 12.3722 8.45433 12.4095 8.46722C12.4468 8.48011 12.4812 8.50023 12.5107 8.52641C12.5402 8.5526 12.5643 8.58434 12.5816 8.61984C12.5988 8.65533 12.609 8.69387 12.6113 8.73327C12.6137 8.77267 12.6083 8.81214 12.5954 8.84945C12.5825 8.88675 12.5624 8.92115 12.5362 8.95068C12.51 8.9802 12.4782 9.00429 12.4427 9.02155C12.4073 9.03881 12.3687 9.04891 12.3293 9.05127H12.0473C11.8313 9.06927 11.6033 9.08727 11.3933 9.08727Z" fill="#333333"/>
<path d="M8.60932 9.08718C8.55011 9.086 8.49222 9.06946 8.44132 9.03918C8.37515 8.99409 8.32929 8.92485 8.31358 8.84633C8.29788 8.76781 8.31358 8.68626 8.35732 8.61918C8.64404 8.18195 8.99847 7.7931 9.40732 7.46718C9.47415 7.42342 9.55563 7.408 9.63384 7.42432C9.71204 7.44063 9.78056 7.48735 9.82432 7.55418C9.86808 7.62102 9.8835 7.7025 9.86718 7.7807C9.85087 7.8589 9.80415 7.92742 9.73732 7.97118C9.39327 8.24886 9.09731 8.58131 8.86132 8.95518C8.83278 8.99558 8.79505 9.02862 8.75124 9.05157C8.70742 9.07453 8.65878 9.08673 8.60932 9.08718Z" fill="#333333"/>
<path d="M5.20731 12.1293C3.9896 12.0858 2.83627 11.5715 1.99019 10.6946C1.14411 9.81774 0.671288 8.64679 0.671288 7.4283C0.671288 6.2098 1.14411 5.03885 1.99019 4.16199C2.83627 3.28514 3.9896 2.77081 5.20731 2.72729C5.28688 2.72729 5.36318 2.7589 5.41945 2.81516C5.47571 2.87142 5.50731 2.94773 5.50731 3.02729C5.50731 3.10686 5.47571 3.18317 5.41945 3.23943C5.36318 3.29569 5.28688 3.32729 5.20731 3.32729C4.56127 3.32579 4.0517 3.46729 3.47505 3.75858C2.8984 4.04987 2.39867 4.47318 2.01651 4.99407C1.63436 5.51496 1.38057 6.11871 1.2758 6.7562C1.17103 7.39369 1.21824 8.04691 1.41359 8.66271C1.60894 9.27851 1.94691 9.83949 2.4 10.3C2.85309 10.7605 3.4085 11.1076 4.02104 11.3129C4.63358 11.5183 5.28595 11.5761 5.92506 11.4817C6.56417 11.3873 7.04428 11.1529 7.57131 10.7793C7.60356 10.7563 7.64004 10.7399 7.67866 10.731C7.71728 10.7222 7.75727 10.7211 7.79632 10.7278C7.83537 10.7345 7.8727 10.7488 7.90617 10.77C7.93964 10.7912 7.96858 10.8188 7.99131 10.8513C8.03626 10.9169 8.05388 10.9975 8.04044 11.0759C8.02699 11.1543 7.98355 11.2244 7.91931 11.2713C7.12534 11.83 6.17813 12.1296 5.20731 12.1293Z" fill="#333333"/>
<path d="M6.63532 20.1271H4.23532C3.64202 20.1226 3.0625 19.9477 2.56574 19.6233C2.06899 19.2989 1.67592 18.8385 1.43332 18.2971L0.0833171 15.2611C0.0283479 15.1331 0 14.9953 0 14.8561C0 14.7168 0.0283479 14.579 0.0833171 14.4511C0.138686 14.3212 0.220704 14.2045 0.324062 14.1084C0.42742 14.0122 0.549813 13.9389 0.683317 13.8931C3.77585 12.7202 7.19078 12.7202 10.2833 13.8931C10.4162 13.9385 10.5382 14.0111 10.6416 14.1061C10.745 14.2012 10.8275 14.3166 10.8839 14.4453C10.9403 14.5739 10.9694 14.7128 10.9693 14.8532C10.9692 14.9937 10.9399 15.1325 10.8833 15.2611L9.53332 18.2971C9.2848 18.8541 8.877 19.325 8.3613 19.6507C7.84559 19.9764 7.24505 20.1421 6.63532 20.1271ZM5.44732 13.5931C3.88117 13.5944 2.32819 13.879 0.863317 14.4331C0.809131 14.4533 0.759713 14.4846 0.718162 14.5248C0.676612 14.5651 0.643824 14.6135 0.621854 14.667C0.599885 14.7205 0.589208 14.778 0.590492 14.8358C0.591776 14.8936 0.604994 14.9506 0.629317 15.0031L1.97932 18.0331C2.17628 18.473 2.49638 18.8464 2.90098 19.1083C3.30557 19.3703 3.77734 19.5094 4.25932 19.5091H6.65932C7.14129 19.5094 7.61306 19.3703 8.01766 19.1083C8.42225 18.8464 8.74236 18.473 8.93932 18.0331L10.2893 15.0031C10.3136 14.9506 10.3269 14.8936 10.3281 14.8358C10.3294 14.778 10.3187 14.7205 10.2968 14.667C10.2748 14.6135 10.242 14.5651 10.2005 14.5248C10.1589 14.4846 10.1095 14.4533 10.0553 14.4331C8.58305 13.8757 7.02157 13.591 5.44732 13.5931Z" fill="#333333"/>
</svg>
