<svg width="24" height="24" viewBox="0 0 24 24" fill="none" xmlns="http://www.w3.org/2000/svg">
<path fill-rule="evenodd" clip-rule="evenodd" d="M4.8 5.10005C4.8 4.93436 4.94711 4.80005 5.12857 4.80005H18.2714C18.4529 4.80005 18.6 4.93436 18.6 5.10005C18.6 5.26573 18.4529 5.40005 18.2714 5.40005H5.12857C4.94711 5.40005 4.8 5.26573 4.8 5.10005Z" fill="black"/>
<path fill-rule="evenodd" clip-rule="evenodd" d="M16.48 10.2C16.6567 10.2 16.8 10.3535 16.8 10.5428L16.8 11.5714C16.8 12.1394 16.3702 12.5999 15.84 12.5999L8.16 12.5999C7.6298 12.5999 7.2 12.1394 7.2 11.5714L7.2 10.5428C7.2 10.3535 7.34327 10.2 7.52 10.2C7.69673 10.2 7.84 10.3535 7.84 10.5428L7.84 11.5714C7.84 11.7607 7.98327 11.9142 8.16 11.9142L15.84 11.9142C16.0167 11.9142 16.16 11.7607 16.16 11.5714L16.16 10.5428C16.16 10.3535 16.3033 10.2 16.48 10.2Z" fill="black"/>
<path fill-rule="evenodd" clip-rule="evenodd" d="M6.6 3.3C6.6 3.13431 6.7511 3 6.9375 3L17.0625 3C17.2489 3 17.4 3.13432 17.4 3.3C17.4 3.46569 17.2489 3.6 17.0625 3.6L6.9375 3.6C6.7511 3.6 6.6 3.46568 6.6 3.3Z" fill="black"/>
<path fill-rule="evenodd" clip-rule="evenodd" d="M20.28 7.85709H3.12C2.7555 7.85709 2.46 8.15131 2.46 8.51424V19.6857C2.46 20.0486 2.7555 20.3428 3.12 20.3428H20.28C20.6445 20.3428 20.94 20.0486 20.94 19.6857V8.51424C20.94 8.15131 20.6445 7.85709 20.28 7.85709ZM3.12 7.19995C2.39099 7.19995 1.8 7.78838 1.8 8.51424V19.6857C1.8 20.4115 2.39099 21 3.12 21H20.28C21.009 21 21.6 20.4115 21.6 19.6857V8.51424C21.6 7.78838 21.009 7.19995 20.28 7.19995H3.12Z" fill="#333333"/>
</svg>
